<?xml version="1.0" encoding="UTF-8"?>
<svg id="Layer_1" data-name="Layer 1" xmlns="http://www.w3.org/2000/svg" viewBox="0 0 1276.71 1032.08">
  <path d="m763.41,366.03c.08,5.41-.44,9.95-3.34,14.38-2.84,4.34-2.33,9.89-2.53,14.97-.31,8.12.56,16.21,1.17,24.3.48,6.42-.68,12.72-1.43,19.01-.78,6.55-.39,12.96.35,19.42,1.09,9.56.96,19.13.66,28.71-.23,7.4,1.16,14.68,1.48,22.03.32,7.37-.35,14.71-.47,22.05-.18,10.86-1.62,21.65-1.41,32.52.34,17.38-3.06,34.01-10.15,49.87-1.7,3.81-2.26,7.91-3.36,11.87-5.15,18.51-9.32,37.37-19.1,54.28-1.67,2.88-2.6,6.22-3.68,9.41-4.25,12.56-10.39,24.29-15.7,36.39-6.06,13.84-12.5,27.51-18.55,41.35-2.97,6.78-7.79,12.49-10.94,19.19-3.71,7.9-8.68,15.1-12.25,23.14-3.32,7.47-8.17,14.28-12.55,21.26-8.09,12.91-15.77,26.05-23.49,39.18-10.01,17.02-20.6,33.74-33.65,48.98-17.81,20.8-37,40.26-55.24,60.61-5.54,6.18-12.54,10.58-19,15.67-12.61,9.93-27.52,16.8-38.15,29.41-5.05,5.99-11.73,9.67-20.3,7.38-6.23-1.66-8.41-4.68-7.77-11.16,1.09-11.02,5.01-21,10.14-30.73,9.91-18.77,22.46-35.46,38.43-49.41,9.06-7.91,16-17.41,22.8-27.16,5.14-7.37,11.84-13.47,17.48-20.49,7.02-8.74,15.41-16.38,22.44-25.12,9.07-11.27,18.95-21.88,27.16-33.87,3.74-5.46,7.32-11.02,10.89-16.59,6.93-10.78,11.05-22.94,16.77-34.31,4.6-9.14,7.33-19.13,12.35-28.11.72-1.29,1.25-2.74,1.6-4.19,1.25-5.1-.84-7.6-5.98-6.88-3.79.53-7.25-.37-9.72-2.88-5.48-5.58-12.44-8.86-19.07-12.44-9.39-5.07-16.47-12.51-23.46-20.14-14.08-15.37-25.23-32.83-35.73-50.75-13.9-23.72-23.45-49.07-29.36-75.87-2.58-11.7-4.41-23.48-6.1-35.35-2.59-18.23.29-36.02,1.34-53.97.67-11.46,1.56-22.95,3.25-34.3,3.76-25.17,6.14-50.74,16.39-74.43,5.51-12.73,8.24-26.17,11.92-39.39,1.41-5.07,2.36-10.21,3.35-15.36.25-1.33.58-2.91,1.45-3.8,3.38-3.43,4.1-7.76,4.08-12.12-.04-9.81,2.14-19.34,3.25-28.99,1.36-11.86.61-23.61-2.54-34.93-7.11-25.51-15.05-50.79-24.84-75.41-4.76-11.97-8.45-24.21-12.03-36.54-3.73-12.86-7.42-25.7-8.87-39.04-2.29-21.06-2.37-41.9,6.91-61.71,1.2-2.57,1.66-5.49,2.56-8.21,1.09-3.27,3.05-3.85,5.57-1.47,3.56,3.38,6.32,7.42,8.71,11.68,9.7,17.33,19.37,34.68,28.5,52.33.57,1.11,1.11,2.3,1.95,3.19,9.98,10.64,15.76,23.97,22.93,36.36,7.27,12.54,12.66,26.05,18.23,39.42,6.9,16.53,11.48,33.8,15.74,51.15,1.5,6.09,1.45,12.39,2.42,18.56.12.74.12,1.5.23,2.24,1.92,12.95,2.87,13.76,15.8,15.23,8.39.96,16.08,4.55,24.09,6.93,2.39.71,4.64,1.87,7.03,2.59,3.66,1.1,6.88,2.75,9.64,5.5,2.65,2.63,5.67,4.89,8.52,7.32,1.62,1.38,3.46,2.75,4.2,4.73,4.24,11.33,7.14,22.49,2.16,34.74-7.71,18.96-21.22,31.81-38.84,41.4-7.96,4.33-15.8,9.12-22.88,14.93-1.25,1.03-2.41,2.18-3.53,3.35-.7.73-1.26,1.64-.57,2.69.55.83,1.45,1.01,2.34.81,14.02-3.19,28.39-1.1,42.51-2.79,5.57-.67,11.13-1.49,16.64-2.5,2.93-.54,5.72-.22,8.55.27,5.16.89,7.13,4.25,5.47,9.27-3.3,9.96-6.87,19.8-11.39,29.29-4.07,8.57-5.61,18.15-10.56,26.39-9.94,16.55-16.27,34.79-24.33,52.22-2.66,5.75-5.8,11.17-7.73,17.34-1.88,6.03-5.9,10.84-12.72,12.66-3.71.99-7.13,2.98-10.73,4.43-7.75,3.13-15.85,4.37-24.18,4.44-4.37.04-8.74.22-13.1.52-3.04.21-4.97,1.53-5.3,5.06-2.19,23.47-3.64,46.9,3.65,69.84,2.84,8.93,6.53,17.55,10.43,26.07,5.91,12.94,12.56,25.55,17.34,39.01,1.07,3.02,2.97,5.76,4.63,8.55,8.79,14.79,16.92,29.91,23.29,45.92.6,1.52,1.04,3.26,2.97,3.5,2.27.28,2.85-1.67,3.62-3.19,4.59-9.06,7.28-18.87,10.99-28.27,4.89-12.4,9.77-24.88,12.1-38.08,1.95-11.06,2.51-22.41,5.02-33.33,4.17-18.13,8.01-36.36,13.28-54.22,3-10.17,5.3-20.54,9.37-30.43,1.76-4.29,1.79-9.28,2.64-13.95,1.64-8.97,2.48-18.19,5.2-26.82,2.59-8.25,2.71-16.72,4.48-24.99.72-3.34.53-6.72.13-10.08-.26-2.19-.26-4.53,1.08-6.14,3.67-4.39,3.81-9.74,4.26-14.87.84-9.55,1.32-19.15,1.64-28.74.34-10.23.61-20.44,1.36-30.66.79-10.64-1.4-21.15-2.44-31.7-2.76-28.12-10.97-55.02-18.65-82.03-2.25-7.91-2-15.36.74-23.41,3.1-9.12,7.26-17.18,13.92-24.01,2.83-2.91,6.35-4.87,9.9-6.67,3.98-2.01,9.34-.76,11.56,3.23,4.06,7.32,9.95,13.82,10.47,22.85.21,3.61,1.52,7.11,3.25,10.32,6.36,11.86,8.67,25,11.67,37.85,1.81,7.75,3.91,15.45,5.24,23.36,1.75,10.43,1.41,20.91,2.23,31.35.48,6.09,2.26,12.05,1.8,17.73Z"/>
  <path d="m1268.28,752.27c-3.43-.03-6.64-1.15-9.85-2.16-9.41-2.95-18.91-5.58-27.59-10.54-8.55-4.89-18.09-7.77-26.29-13.51-20.55-14.41-41.37-28.45-62-42.75-4.41-3.05-8.29-6.76-12.07-10.61-6.41-6.53-14.03-11.66-21.68-16.59-7.55-4.86-14.11-10.62-19.92-17.44-4.04-4.74-8.7-8.92-13.37-13.1-16.56-14.83-33.18-29.69-44.87-48.93-4.25-7-8.19-14.29-5.76-23.3,1.58-5.83,4.47-8.66,12.48-8.74,8.62-.09,15.7,3.75,21.77,9.5,9.8,9.28,21.06,16.87,30.5,26.55,1.09,1.12,2.56,2.52,4.25,1.33,1.74-1.22.77-3.01.04-4.41-5.99-11.66-11.38-23.61-17.71-35.11-8.59-15.61-18.41-30.68-22.47-48.41-2.36-10.3-8.53-18.83-13.11-28.09-10.02-20.26-23.07-38.88-32.23-59.6-1.17-2.65-2.83-6.48-6.17-5.41-3.39,1.09-1.42,4.95-1.27,7.65.82,14.21.8,28.42-.09,42.62-.75,11.84-2.06,23.62-2.79,35.47-.57,9.21-2.23,18.34-2.96,27.55-1.14,14.39-3.68,28.46-8.12,42.21-1.47,4.54-3.02,8.95-5.65,13-4.64,7.14-6.08,15.48-8.63,23.45-6.3,19.71-6.56,40.34-10.11,60.43-2.87,16.3-1.81,32.63-3.66,48.83-.7,6.15-2.18,12.33-4.18,18.19-2.57,7.53-4.25,15.2-4.74,23.05-.57,9.04-2.99,17.72-4.25,26.6-1.8,12.6-2.92,25.29-4.51,37.91-.83,6.54-3.09,12.57-7.34,17.79-2.95,3.62-6.21,3.51-7.94-.81-1.53-3.81-2.87-7.79-3.54-11.82-2.6-15.64-5.22-31.3-7.14-47.03-.7-5.72.73-11.68.88-17.53.58-23.47,3.9-46.74,4.93-70.19.66-14.99,4.7-29.58,7.13-44.37,2.07-12.55,4.68-25.03,7.36-37.47,1.13-5.24,3.32-10.12,6.6-14.55,3.67-4.95,6.14-10.64,7.85-16.51,1.41-4.83,3.19-9.46,5.26-14.01,2.09-4.58,3.08-9.46,4.34-14.3,2.58-9.9,5.77-19.64,8.66-29.46,5.29-17.96,8.29-36.26,7.86-55.03-.23-10.05-3.28-19.69-4.62-29.56-1.5-11.09-5.6-21.5-7.54-32.41-1.29-7.22-.9-14.71-4.14-21.58-2.72-5.76-4.97-11.74-7.86-17.41-3.11-6.11-3.98-12.86-6.21-19.22-4.13-11.77-10.75-22.24-16.64-33.1-6.97-12.85-14.18-25.59-18.89-39.52-2.72-8.03-7.9-14.75-12.08-21.94-5.37-9.24-6.48-18.74-5.05-28.82.79-5.56,2.41-11.04,4.88-16.1,4.56-9.34,12.16-15.83,22-18.45,15.37-4.09,32.46,2.2,33.89,23.73,1.15,17.43,3.04,34.82,4.6,52.23.47,5.32,3.09,7.31,8.1,5.42,14.34-5.41,29.32-7.97,44.42-7.99,17.52-.03,35.02,1.77,50.4,11.74,7.93,5.14,12.65,13,15.82,21.34,6.91,18.22,12.66,36.85,15.12,56.3.82,6.48-1.89,11.94-5.74,16.93-.38.49-.93.88-1.23,1.41-6.6,11.76-17.2,17.08-30.03,19.38-7.3,1.31-8.4,6.04-3.09,11.62,9.16,9.62,17.21,20.12,24.89,30.91,7.1,9.97,13.22,20.59,19.99,30.76,13.77,20.7,27.01,41.67,38.74,63.64,6.21,11.62,13.88,22.52,20.83,33.75,8.88,14.33,19.74,27.31,27.56,42.37,4.23,8.15,10.66,15.03,16.42,22.27,7.92,9.94,16.08,19.74,22.52,30.79,3.08,5.29,6.82,10.19,10.47,15.06,6.47,8.63,11.57,18.11,17.65,26.96.77,1.12,1.52,2.37,1.83,3.66,3.79,15.53,13.04,28.54,19.74,42.72,2.41,5.1,4.39,10,3.53,15.75-.8,5.36-2.67,7.08-8.22,7.01Z"/>
  <path d="m351.06,119.19c-.45-7.85-.13-15.84-1.54-23.51-1.85-10.08-2.73-20.59-8.41-29.65-.88-1.4-1.28-2.99-1.44-4.62-.79-7.98-3.64-15.25-7.33-22.29-2.9-5.53-5.94-11.01-7.67-17.07-1.55-5.43-.33-7.99,4.7-10.62,5.97-3.12,11.73-6.66,17.79-9.61,7.31-3.56,14.47-1.79,19.5,4.61,10.98,13.96,20.02,28.92,24.67,46.32,1.87,6.99,4.46,13.79,6.93,20.6,4.98,13.78,6.01,28.3,8.2,42.6.7,4.57,1.51,9.12,2.31,13.67,1.64,9.27-.34,18.42-.83,27.63-.98,18.69-5.21,36.86-9.54,54.92-3.32,13.81-8.18,27.27-14.86,39.94-6.17,11.7-12.2,23.46-18.35,35.17-1.58,3-3.76,5.59-6.22,7.93-4.28,4.08-8.2,8.36-9.95,14.26-.85,2.88-3.33,4.61-5.71,6.26-2.41,1.68-4.12,3.73-3.48,6.89.39,1.94-.59,2.63-2.21,3.21-5.57,2.02-9.37,6.07-12.11,11.17-1.04,1.94-2.46,3.51-4.18,4.73-4.01,2.84-6.48,6.75-8.87,10.94-3.92,6.86-9.93,12.19-14.43,18.62-4.52,6.46-11.34,10.09-17.1,14.99-12.72,10.82-27.03,19.61-39.54,30.71-4.47,3.97-9.17,7.72-13.18,12.2-4.63,5.19-10.82,8.43-16.15,12.75-11.32,9.16-22.96,17.7-31.71,29.88-7.69,10.7-18.24,19.15-27.35,28.76-6.34,6.68-13.78,12.27-19.71,19.2-5.15,6.03-10.91,11.56-15.46,18.17-2.43,3.52-6.25,6.04-8.52,9.86-.86,1.44-1.85,2.84-.95,4.49.89,1.63,2.65,1.26,4.07,1.04,6.08-.93,11.81-3.19,17.67-4.92.77-.23,1.68-.9,2.01-1.6,2.33-5.02,6.99-5.02,11.44-5.44,13.3-1.27,26.61-2.33,39.89-3.81,6.41-.72,12.65-2.53,19.12-3.32,8.11-.99,16.14-1.03,24.24-1.25,11.97-.32,23.94.41,35.92-.31,5.66-.34,11.42.86,17.13,1.47,1.99.21,3.43,1.41,4.26,3.27,1.38,3.08,2.69,6.19,4.19,9.21,3.13,6.33,1.57,12.09-1.84,17.73-4.37,7.24-11.04,12.24-17.37,17.43-7.53,6.17-15.14,12.15-22.25,18.87-10.07,9.53-22.49,15.04-36.04,18.13-15.82,3.61-31.77,3.12-47.73,1.9-13.14-1-26.31-1.06-39.2,1.37-14.77,2.77-28,9.33-39.7,19.06-5.72,4.76-12.7,7.89-18.27,12.98-1.57,1.43-3.23,2.75-4.61,4.37-7.76,9.1-17.5,15.49-28.05,20.89-14.11,7.23-29.5.27-32.57-17.92-1.76-10.4.4-20.24,2.31-30.35,2.71-14.29,10.08-26.54,15.72-39.55.82-1.9,2.24-3.62,3.67-5.16,2.77-2.98,4.91-6.28,6.3-10.1.34-.93.72-1.96,1.39-2.64,5.03-5.07,8.96-10.9,12.99-16.78,3.75-5.48,8.26-10.58,12.52-15.67,5.95-7.1,11.7-14.53,18.87-20.66,6.04-5.17,11.42-11.12,17.18-16.63,8.66-8.27,16.71-17.2,25.93-24.86,8.08-6.71,15.04-14.68,23.36-21.05,13.42-10.26,24.61-23.01,38.02-33.26,5.44-4.16,9.34-10.08,15.06-13.99,14.38-9.81,24.77-23.85,37.45-35.48,7.3-6.7,14.05-14.1,21.26-21,11.11-10.63,21.03-22.34,30.57-34.41,4.87-6.16,9.56-12.48,14.62-18.51,3.32-3.95,5.48-8.89,8.07-13.43,4.33-7.58,8.01-15.54,12.28-23.11,4.72-8.35,8.66-16.99,11.38-26.02,4.32-14.34,10.16-28.21,13.27-42.94,1.61-7.63,1.35-15.41,2.5-23.06,2.5-16.54,4.51-33.15,5.43-49.86.07-1.25,0-2.5,0-3.75h.23Z"/>
  <path d="m491.24,353.02c.14,2.4-.33,6.88-.71,11.36-.24,2.84-1.73,4.34-4.51,4.53-11.07.74-22.14,1.35-33.26,1-9.6-.3-19.2-.64-28.79-.91-12.39-.34-22.49,11.79-20.98,25.28.5,4.45,4.98,8.35,9.47,8.64,15.1.97,30.18.38,45.25-.76,3.02-.23,5.97.24,8.95.44,5.99.4,11.99.08,17.95-.39,12.81-1.02,16.12,1.81,15.33,14.73-.47,7.83-1.8,15.62-2.86,23.41-.57,4.16-3.79,5.08-7.3,5.76-6.99,1.35-13.95.43-20.89-.18-9.71-.86-19.39-1.56-29.16-.85-5.07.37-10.22-.18-15.33-.44-5.9-.3-11.28,1.96-16.84,3.28-2.76.65-4.06,3-3.98,5.71.13,4.48.37,8.99.96,13.43.47,3.52,3.47,4.13,6.45,4.57,7.55,1.12,15.2,1.16,22.78,1.33,12.09.27,24.18,1.73,36.31.48,2.81-.29,5.74.24,8.57.65,4.79.69,6.6,3.17,6.24,8.01-.65,8.59-1.92,17.2-1.66,25.76.28,9.3-.59,18.42-1.69,27.57-.46,3.84-1.06,7.67-1.72,11.49-1.11,6.43-4.14,9.53-10.68,9.12-21.94-1.38-43.92-.58-65.87-1.58-10.84-.49-21.69-.51-32.53-1.06-8.47-.43-16.97-.93-25.35-2.14-7.94-1.15-15.39-4.19-22.26-8.45-3.58-2.23-5.95-5.48-8.29-8.96-7.93-11.77-10.89-25.66-16.81-38.25-4.5-9.57-8.76-19.35-14.87-28.09-.85-1.21-1.85-2.51-3.09-3.22-7.64-4.41-10.63-12.19-14.57-19.36-5.58-10.15-3.35-19.5,2.43-28.59,1-1.58,1.96-3.29,3.32-4.52,4.09-3.73,6.86-8.18,8.33-13.5.53-1.9,2.03-3,3.9-2.99,7.22.03,12.48-4.14,17.41-8.46,3.15-2.76,6.7-4.76,10.06-7.1,3.57-2.5,6.53-5.51,8.51-9.29,3.89-7.44,9.44-13.82,13.42-21.17,3.36-6.22,5.35-13.13,9.3-19.09,1.19-1.8-.73-4.12,1.74-6.07,5.5-4.34,10.54-9,18.01-9.98,8.17-1.07,16.25-2.14,24.56-1.65,5.04.29,10.16-1.08,15.26-1.35,9.09-.48,18.19.37,27.3-.27,9.69-.68,19.4.8,29.15-.25,8.06-.87,16.22-.05,24.25,1.28,5.28.87,6.3,1.99,6.64,7.29.69,10.58,2.22,21.11,2.16,33.84Z"/>
  <path d="m853.62,329.74c5.41.22,9.9,1.64,14.01,4.16,9.17,5.63,17.36,12.64,26.23,18.68,9.6,6.53,19.47,12.66,29.27,18.88,4.95,3.14,9.99,6.17,15.04,9.15,5.07,3,7.46,7.27,7.6,13.24.29,12.59.92,25.18,1.46,37.77.06,1.49.23,3.02.67,4.43,1.59,5.1,2.09,10.14,1.07,15.49-1.05,5.51.9,10.89,1.85,16.28.41,2.33,1.14,4.61,1.68,6.92,1.4,5.94.81,7.81-4.46,10.8-14.05,7.97-26.6,18.17-40.18,26.81-1.58,1-3.17,2.03-4.87,2.78-11.54,5.12-21.72,12.68-33.14,18.09-7.72,3.66-14.52,3.99-22-.22-7.56-4.24-13.98-10.03-21.31-14.53-17.13-10.52-33.61-22.13-51.44-31.44-9.32-4.86-11.37-12.67-10.36-23.11.58-5.99,1.17-11.94.8-17.89-.62-9.99-.4-19.93-.1-29.92.32-10.72.86-21.43,1.06-32.15.11-6.18,1.08-7.45,6.98-9.48,3.57-1.23,6.74-3.1,9.9-5.19,7.8-5.16,16.16-9.4,24.11-14.35,8.27-5.15,16.46-10.41,24.51-15.89,5.42-3.68,11.19-6.58,17.39-8.62,1.51-.5,3.18-.53,4.25-.7Z"/>
  <path d="m716.48,189.89c.46,3.31-1.54,8.42-4.91,13.17-2.45,3.46-5.61,5.33-9.87,4.79-6.8-.86-13.73-.37-20.43-2.3-3.42-.98-5.15-2.92-5.72-6.49-1.42-8.84-.87-17.66-.13-26.49.4-4.72-.05-9.5.99-14.19.63-2.83,1.64-5.24,4.54-6.41.34-.14.73-.3.96-.57,6.96-7.87,15.65-5.4,24.11-3.97,3.88.66,6.3,3.12,6.65,7.08.98,10.94,3.19,21.74,3.81,35.36Z"/>
</svg>